<svg xmlns="http://www.w3.org/2000/svg" xmlns:xlink="http://www.w3.org/1999/xlink" width="50" zoomAndPan="magnify" viewBox="0 0 37.5 37.499999" height="50" preserveAspectRatio="xMidYMid meet" version="1.0"><defs><clipPath id="481a4257b1"><path d="M 0 0 L 37.007812 0 L 37.007812 37.007812 L 0 37.007812 Z M 0 0 " clip-rule="nonzero"/></clipPath></defs><g clip-path="url(#481a4257b1)"><path fill="#ffffff" d="M 0 0 L 37.007812 0 L 37.007812 37.007812 L 0 37.007812 Z M 0 0 " fill-opacity="1" fill-rule="nonzero"/><path fill="#ffffff" d="M 0 0 L 37.007812 0 L 37.007812 37.007812 L 0 37.007812 Z M 0 0 " fill-opacity="1" fill-rule="nonzero"/></g><path fill="#000000" d="M 34.457031 7.414062 C 34.003906 6.960938 33.402344 6.660156 32.800781 6.660156 L 26.027344 6.660156 C 25.277344 3.199219 22.265625 0.640625 18.652344 0.640625 C 15.042969 0.640625 12.03125 3.199219 11.28125 6.660156 L 4.355469 6.660156 C 3.753906 6.660156 3.152344 6.960938 2.703125 7.414062 C 2.097656 7.863281 1.949219 8.617188 1.949219 9.21875 L 3.003906 32.09375 C 3.152344 34.804688 5.261719 36.761719 7.816406 36.761719 L 29.039062 36.761719 C 31.597656 36.761719 33.855469 34.652344 33.855469 32.09375 L 35.058594 9.21875 C 35.058594 8.617188 34.90625 7.863281 34.457031 7.414062 Z M 18.503906 3.652344 C 20.460938 3.652344 22.113281 4.855469 22.71875 6.660156 L 14.289062 6.660156 C 14.890625 5.003906 16.546875 3.652344 18.503906 3.652344 Z M 18.503906 30.738281 C 14.742188 30.738281 12.183594 28.03125 12.183594 28.03125 L 13.839844 25.324219 C 13.839844 25.324219 16.847656 27.578125 18.652344 27.578125 C 20.308594 27.578125 21.8125 26.675781 21.8125 25.472656 C 21.8125 24.117188 20.910156 23.515625 18.203125 22.613281 C 15.945312 21.710938 12.933594 20.65625 12.933594 17.496094 C 12.933594 14.636719 15.492188 12.53125 18.804688 12.53125 C 22.566406 12.53125 24.523438 14.636719 24.523438 14.636719 L 23.019531 17.195312 C 23.019531 17.195312 20.761719 15.539062 18.804688 15.539062 C 17.148438 15.539062 15.945312 16.292969 15.945312 17.496094 C 15.945312 18.398438 16.847656 19 19.105469 19.753906 C 21.511719 20.65625 24.824219 21.859375 24.824219 25.472656 C 24.671875 28.484375 21.964844 30.738281 18.503906 30.738281 Z M 18.503906 30.738281 " fill-opacity="1" fill-rule="nonzero"/></svg>